<svg id="Layer_1" data-name="Layer 1" xmlns="http://www.w3.org/2000/svg" xmlns:xlink="http://www.w3.org/1999/xlink" viewBox="0 0 420.08 268.43"><defs><style>.cls-1{fill:#1e1e1e;}.cls-2{fill:url(#linear-gradient);}.cls-3{fill:url(#linear-gradient-2);}</style><linearGradient id="linear-gradient" x1="250.52" y1="264.02" x2="425.31" y2="377.89" gradientUnits="userSpaceOnUse"><stop offset="0" stop-color="#a0a09f"/><stop offset="0.02" stop-color="#949493"/><stop offset="0.08" stop-color="#757574"/><stop offset="0.15" stop-color="#595959"/><stop offset="0.22" stop-color="#434343"/><stop offset="0.31" stop-color="#333332"/><stop offset="0.42" stop-color="#272727"/><stop offset="0.57" stop-color="#202020"/><stop offset="1" stop-color="#1e1e1e"/></linearGradient><linearGradient id="linear-gradient-2" x1="433.85" y1="159.86" x2="591.37" y2="262.15" gradientUnits="userSpaceOnUse"><stop offset="0" stop-color="#1e1e1e"/><stop offset="0.3" stop-color="#202020"/><stop offset="0.47" stop-color="#292928"/><stop offset="0.6" stop-color="#363636"/><stop offset="0.72" stop-color="#4a4a4a"/><stop offset="0.83" stop-color="#646463"/><stop offset="0.92" stop-color="#828282"/><stop offset="1" stop-color="#a0a09f"/></linearGradient></defs><path class="cls-1" d="M413.45,163.58v49.76A17.27,17.27,0,0,1,397,230.6H312.94a67,67,0,0,0-1.95,134,100.53,100.53,0,0,1,1.95-201Z" transform="translate(-212.4 -163.58)"/><path class="cls-2" d="M413.45,314.89v49.73H311a67,67,0,0,1,.23-134,33.51,33.51,0,0,0,1.72,67h83.21A17.28,17.28,0,0,1,413.45,314.89Z" transform="translate(-212.4 -163.58)"/><path class="cls-1" d="M560.86,360.39,632.48,432H553l-54.59-54.59V432H448.71a17.28,17.28,0,0,1-17.27-17.3V314.89a17.26,17.26,0,0,1,17.27-17.28H532a67,67,0,0,0,1.94-134,100.52,100.52,0,0,1,27,196.78Z" transform="translate(-212.4 -163.58)"/><path class="cls-3" d="M599,230.6a67,67,0,0,1-65.29,67,33.5,33.5,0,0,0-1.72-67H447.83a17.26,17.26,0,0,1-16.39-17.26V163.58H532c.66,0,1.3,0,1.94,0A67,67,0,0,1,599,230.6Z" transform="translate(-212.4 -163.58)"/></svg>