<svg id="Layer_1" data-name="Layer 1" xmlns="http://www.w3.org/2000/svg" xmlns:xlink="http://www.w3.org/1999/xlink" viewBox="0 0 420.08 268.43"><defs><style>.cls-1{fill:#fff;}.cls-2{fill:url(#linear-gradient);}.cls-3{fill:url(#linear-gradient-2);}</style><linearGradient id="linear-gradient" x1="38.11" y1="100.44" x2="212.9" y2="214.31" gradientUnits="userSpaceOnUse"><stop offset="0" stop-color="#b2b2b2"/><stop offset="0.05" stop-color="#c4c4c4"/><stop offset="0.14" stop-color="#dadada"/><stop offset="0.23" stop-color="#eaeaea"/><stop offset="0.36" stop-color="#f6f6f6"/><stop offset="0.53" stop-color="#fdfdfd"/><stop offset="1" stop-color="#fff"/></linearGradient><linearGradient id="linear-gradient-2" x1="221.45" y1="-3.72" x2="378.97" y2="98.57" gradientUnits="userSpaceOnUse"><stop offset="0" stop-color="#fff"/><stop offset="0.35" stop-color="#fdfdfd"/><stop offset="0.55" stop-color="#f4f4f4"/><stop offset="0.71" stop-color="#e7e7e7"/><stop offset="0.84" stop-color="#d3d3d3"/><stop offset="0.97" stop-color="#bababa"/><stop offset="1" stop-color="#b2b2b2"/></linearGradient></defs><path class="cls-1" d="M201,0V49.76A17.27,17.27,0,0,1,184.63,67h-84.1a67,67,0,0,0-1.94,134A100.53,100.53,0,0,1,100.53,0Z"/><path class="cls-2" d="M201,151.31V201H98.59a67,67,0,0,1,.22-134,33.51,33.51,0,0,0,1.72,67h83.21A17.28,17.28,0,0,1,201,151.31Z"/><path class="cls-1" d="M348.46,196.81l71.62,71.62H340.63L286,213.84v54.59H236.31A17.29,17.29,0,0,1,219,251.13V151.31A17.27,17.27,0,0,1,236.31,134h83.23A67,67,0,0,0,321.49,0a100.52,100.52,0,0,1,27,196.78Z"/><path class="cls-3" d="M386.56,67a67,67,0,0,1-65.3,67,33.5,33.5,0,0,0-1.72-67H235.43A17.27,17.27,0,0,1,219,49.76V0H319.54c.67,0,1.31,0,1.95,0A67,67,0,0,1,386.56,67Z"/></svg>